<?xml version="1.0" encoding="utf-8"?>
<!DOCTYPE svg PUBLIC "-//W3C//DTD SVG 1.1//EN" "http://www.w3.org/Graphics/SVG/1.1/DTD/svg11.dtd">
<svg version="1.1" id="Layer_1" xmlns="http://www.w3.org/2000/svg" xmlns:xlink="http://www.w3.org/1999/xlink" x="0px" y="0px"
	 viewBox="0 0 1920 1920" enable-background="new 0 0 1920 1920" xml:space="preserve">
<path d="M572.41,40.48c0.6,0,1.82,0,2.42,0c-0.06,2.24,0.14,4.57-0.68,6.71c-4.71,13.71-9.5,27.39-14.1,41.13
	c1.36-0.27,2.85-0.37,3.98-1.3c5.61-4.05,11.1899-8.13,16.77-12.21c1.11-1.1,2.69-0.9,4.13-0.97c-0.35,1.26-0.44,2.66-1.33,3.7
	c-4.95,6.65-10.21,13.68-11.35,22.13c2.34,0.81,4.7,1.86,6.35,3.79c4.46,4.87,7.35,10.92,10.08,16.87
	c5.26,11.92,9.32,24.34,13.05,36.81c7.79,2.6,15.77,5,22.84,9.29c1.89,1.31,4.35,2.96,4.13,5.59c0.02,9.92,0.08,19.84-0.04,29.76
	c-0.17,7.62-4.15,15.08-10.68,19.11c-10.48,6.74-23.39,7.41-35.47,7.83c-5.22,1.8-9.89,4.91-15.03,6.9
	c-6.41,0.43-12.59-2.71-17.19-6.99c-7.02-6.55-11.29-15.38-14.91-24.13c-1.51,0.19-2.91,0.74-3.49,2.25
	c-11.18,18.81-20.65,39.3-22.92,61.3c-0.24,3.58-0.91,7.32,0.37,10.79c4.14,13.17,8.17,26.38,12.28,39.56
	c0.72,2.48,1.8,4.95,1.66,7.6c-0.51,22.46-7.98,44.03-16.96,64.37c-0.42,5.18-0.07,10.41-0.17,15.61c-0.18,4.5,2.52,8.38,4.75,12.07
	c7.52,11.54,16.55,22,25.51,32.43c13.89,16.1,28.56,31.5,43.04,47.06c1.16,3.34,1.6,6.89,2.35,10.34c0.87,2.82-0.55,5.57-1.77,8.05
	c-5.38,9.9-13.07,18.26-19.85,27.16c-2.52,9.79-5.54,19.59-10.9,28.2599c-4.29,7.3-9.9301,13.72-16.26,19.32
	c-5.43,0.76-9.56-3.42-11.43-8.06c-5.46-12.48-6.67-26.28-8.1-39.68c8.12-5.5,16.11-11.35,22.87-18.49
	c4.44-4.76,8.58-10.39,9.11-17.11c-16.8-12.8-33.65-25.53-50.47-38.31c-9.7-7.16-19.02-14.87-28.99-21.65
	c-4.57,5.27-3.67,12.82-3.96,19.3c-0.63,0.01-1.87,0.04-2.5,0.05c0.8,0.79,1.59,1.58,2.4,2.38c-0.93,5.6-2.82,11.11-2.46,16.87
	c-0.27,5.59,1.45,10.98,2.5,16.41c-0.55,0.04-1.64,0.11-2.18,0.14c0.69,1.12,2.34,1.9,2.12,3.44c0.34,1.61-1.46,2.45-2.16,3.65
	c1.33,1.31,2.41,2.82,2.27,4.79c-0.85,0.78-1.68,1.56-2.51,2.35c0.8,0.78,1.6,1.56,2.41,2.35c-0.02,0.66-0.08,1.97-0.11,2.63
	c-0.78,0.73-1.56,1.46-2.32,2.2c0.6,0.56,1.82,1.69,2.42,2.26c-0.76,7.6-2.88,15.11-2.34,22.81c0.53,17.7,2.04,35.87,9.19,52.3
	c4.15,9.49,11.22,18.25,21.14,22.03c3.91,2.12,6.2,6.29,9.37,9.32c2.96,3.47,6.25,6.65,9.06,10.24c0.45,1.82,0.31,3.81,0,5.66
	c-1.25,1.8-3.41,2.61-5.3,3.54c-7.4,3.1299-15.28,4.89-23.05,6.81c-4.71,1.75-8.71-2.46-12.93-3.96c-2.7,3.41-7.27,2.34-10.93,1.5
	c-6.46-1.71-11.08-7.29-13.54-13.26c-4.55-10.61-4.79-22.36-5.32-33.68c-2.13-6.27-4.65-12.41-7.11-18.56
	c-0.94,0.62-1.81,1.34-2.67,2.05c-1.98-0.15-4.53,0.27-5.82-1.63c-2.56-3.79-0.68-8.38,0.19-12.38c1.06-5.35,2.8-10.58,3.33-16.01
	c-0.25-20.85-3.71-41.52-8.01-61.87c-5.13-23.67-11.71-47-18.95-70.1c0.77-0.77,1.54-1.53,2.32-2.29
	c-21.41-1.23-42.51-5.45-63.62-8.99c-18.02-3.13-35.94-6.77-53.93-10c-12.85,2.33-25.74,5.76-37.32,11.95
	c-7.15,3.87-14.11,10.26-14.31,18.98c-1.58,1.56-3.17,3.1-4.76,4.65c-5.72-0.03-11.43-0.01-17.15-0.03
	c-0.32,17.23-10.43,32.27-21.51,44.69c-5.78,6.21-11.74,12.37-18.45,17.57c-17.57,10.12-35.06,21.03-49.23,35.71
	c-8.03,8.44-15.23,18.77-16.19,30.72c-0.62,15.45,3.06,31.74,13.18,43.81c2.59,3.34,5.91,5.99,8.98,8.85
	c4.2,4.6,8.11,9.45,12.22,14.12c0.31,3.45-1.41,6.71-4.56,8.22c-7,3.62-14.99,4.96-22.75,5.79c-8.03-0.79-16.16-2.09-23.66-5.18
	c-3.91-1.66-8.28-4.77-8.04-9.53c-0.05-15.68-0.01-31.37-0.02-47.05c0.31-10.39-1.63-20.65-2.42-30.97
	c-8.71,8.55-16.31,19.43-17.15,31.96c0.04,9.08-0.7,18.38,1.97,27.21c5.01,17.5,16.25,32.35,28.14,45.8
	c1.59,2.15,4.9,3.82,4.14,6.95c-3.63,3.63-8.76,5.1-13.58,6.4C73.8,681.89,66.91,682.97,60,683.35c-6.93-1.13-13.86-2.95-20.19-6.04
	c-3.19-1.7-6.93-4.22-6.89-8.27c-0.13-31.71,0.04-63.43-0.08-95.14c-0.69-11.92-1.68-23.82-2.41-35.73
	c16.23-12.47,31.94-26.14,43.67-43.06c7.3-10.61,12.88-23.05,12.66-36.15c-0.7-17.28-1.75-34.56-2.32-51.85
	c2.15-23.57,13.26-45.27,26.88-64.24c-9.35-0.02-18.83-0.14-27.96-2.4c-3.25-0.95-7.07-2.19-8.58-5.53
	c-0.37-2.06-0.25-4.17-0.31-6.25c2.49-2.41,4.98-4.82,7.45-7.24c6.68-0.15,13.38,0.24,20.04-0.18
	c36.68-9.14,74.43-12.64,111.94-16.47c19.81-8.92,40.1-16.81,60.47-24.37c30.36-11.31,60.96-21.94,91.52-32.65
	c22.82-11.27,44.16-27.56,56.82-50.06c3.25-5.45,5.38-11.43,7.76-17.28c11.66-19.89,24.2-39.34,38.62-57.38
	c8.32-10.23,17.27-20.14,27.96-27.97c5.42-3.89,11.36-7.34,17.95-8.73c1.58-0.44,3.4-0.46,4.65-1.68
	C537.23,69.94,554.79,55.17,572.41,40.48z"/>
<path d="M1294.11,85.27c1.78-1.7,3.55-3.42,5.34-5.14c9.9501,14.7,19.76,29.53,28.4401,45.02c4.16,7.62,8.4399,15.38,9.96,24.03
	c3.53,7.93,10.54,13.66,17.59,18.41c15.3501,9.86,32.8501,15.59,50.1901,20.83c39.0599,15.73,79.39,28.02,119.63,40.31
	c26.5599,7.98,53.21,15.66,79.9,23.22c8.2799,2.15,16.39,5.15,24.95,6.11c45.38,7.29,90.77,14.85,135.52,25.41
	c14.23,3.54,28.53,7.16,42.11,12.78c4.37,2.03,9.16,3.96,12.3,7.78c2.26,5.16,6.26,9.21,9.52,13.75
	c-0.2101,2.65,0.0299,5.75-2.0601,7.76c-2.3199,2.33-5.83,2.37-8.86,2.73c5.28,11.11,8.85,23.38,7.95,35.78
	c-1.7,23.78-13.63,45.32-27.09,64.44c-0.01,0.86,0.01,1.72,0.05,2.59c14.5499,1.41,29.09,3.26,43.75,2.58
	c5.6,5.05,8.98,11.97,12.8999,18.3c8.92,15.61,16.89,31.74,25.01,47.76c8,11.49,16.23,22.83,24.3301,34.25
	c-1.49,10.0601-3.3401,20.3101-8,29.45c-2.64,5.25-7.39,9.98-13.5801,10.26c-12.34-7.62-20.2-20.81-23.71-34.63
	c-2.41-9.14-3.45-18.61-3.5699-28.04c-0.0901-1.63,0.0399-3.35-0.8201-4.8c-6.51-12.28-16.25-24-29.9399-28.31
	c-5.41-1.76-11.1901-2.3-16.8301-1.78c-18.9,0.81-37.7899,2.03-56.6899,2.57c-3.89,0.48-4.5601,5.1-4.53,8.25
	c0.52,20.16,5.4301,39.87,10.6,59.25c0.41,2.05,0.25,4.17,0.3101,6.27c-15.9401,18.66-25.8101,41.46-35.63,63.7
	c-10.15,16.2401-18.8,33.53-24.15,51.96c-3.48,2.97-8.0601,4.6-11.9399,7.08c-2.66,1.29-5.0701,3.36-8,3.88
	c-9.67,0.11-19.3301,0-28.9901,0.04c-2.73-2.66-5.46-5.33-8.2-7.96c0.03-2.64-0.29-5.52,1.51-7.69
	c12.52-19.06,29.4301-34.68,46.28-49.84c2.6599-2.66,6.45-4.54,7.72-8.31c4-9.78,8.55-19.35,12.37-29.19
	c0.46-19.24-3.15-38.3-7.33-57c-4.54-19.81-10.51-39.25-16.8-58.55c-1.15-6.5-2.21-13.05-2.84-19.62
	c0.7999-11.22,1.77-22.44,2.63-33.66c-7.41-2.44-14.63-5.77-22.13-7.68c-37.9601,14.72-75.78,29.84-113.74,44.58
	c-0.54,23,1.7799,45.93,3.59,68.84c1.29,14.37,2.78,28.72,4.99,42.97c1.47,9.07,3.02,18.19,6.05,26.89c1.4199,3.75,3.08,8,7.13,9.61
	c1.3199,5.52-3.77,8.87-5.54,13.44c2.09,15.4,5.5599,30.64,8.02,46c0.8199,9.14-3.5601,18.59-11.3101,23.59
	c-10.4199,6.92-23.3199,8.23-35.5,8.8c-5.36,0.54-10.4399-1.48-15.5599-2.6201c0.0599-2.29-0.25-4.66,0.64-6.8199
	c6.0199-16.01,12.21-31.95,18.1499-47.98c0.3301-7.53,1.1801-15.43-1.47-22.68c-10.34-36.66-20.59-73.36-30.95-110.02
	c-3.38-0.05-6.01,2.25-8.8101,3.78c-25.08,14.61-50.14,29.23-75.24,43.82c1.79,2.48,5.55,4.07,5.46,7.49
	c-3.9099,3.3-8.36,6.3-10.6299,11.08c-4.0701,7.51-3.1001,16.35-3,24.56c1.72,9.57,8.23,17.26,13.1899,25.34
	c1.4,4.46,1.66,9.22,2.64,13.8c0.9,2.61-1.0701,4.8199-2.12,7.03c-5.5701,10-12.05,20.06-21.66,26.6
	c-4.5499,0.7401-9-2.1-12.22-5.1299c-6.99-6.9901-11.04-16.26-14.54-25.35c-2.35-6.66-4.87-13.34-6.1799-20.3
	c1.1499-11.36,4.0499-22.53,5.36-33.88c-0.63-10.67-2.0701-21.3-2.55-31.98c1.22-6,5.52-10.74,9.25-15.38
	c11.03-12.64,23.5801-23.83,36.1901-34.86c14.99-13.08,30.48-25.58,46.0299-38c1.0701-0.68,0.66-2.16,1-3.21
	c-16.76-9.78-32.87-21.31-45.25-36.41c-10.37-12.7-17.6499-28.68-17.3099-45.31c1.41-8.03,3.7999-15.88,5.24-23.9
	c0.34-9.66-4.08-19-10.55-25.98c-9.2699-10.09-21.6699-16.55-34.14-21.8c-22.1599-9.06-45.6899-14.09-69.1899-18.2
	c-0.25,4.85-3.64,8.7-6.29,12.51c-6.71,8.94-17.7899,14.09-28.9199,13.89c-0.13-0.63-0.38-1.89-0.51-2.52
	c-3.65,1.55-7.04,3.77-10.8201,4.95c-10.87-4.52-21.59-9.47-31.9399-15.1c-5.21-3.01-10.78-5.96-14.35-10.98
	c-4.4801,1.7-8.92,3.49-13.41,5.15c-0.91-0.9-1.79-1.79-2.66-2.68c-0.03-1.67-0.02-3.34-0.03-5.01c2.7001-0.48,6.28-0.48,7.77-3.27
	c0.3101-1.56,0.38-3.16,0.54-4.75c-6.52-0.3-13.51-1.27-18.66-5.65c-6.77-5.66-8.85-15.13-8.48-23.57
	c2.6901-8.27,6.2-16.27,9.83-24.18c2.88-5.84,5.91-11.76,10.3101-16.63c2.02-2.09,4.67-4.4,7.8199-3.83
	c6.3,0.76,12.55,1.85,18.87,2.53c5.64-4.45,9.42-10.68,13.4901-16.5c4.1399-6.22,8.1-12.57,12-18.95c1.0499-2.01,3.25-2.86,5.08-4
	c10.39-6.22,20.78-12.43,31.1799-18.65c0.51-13.42-4.4099-26.27-5.62-39.54c1.8-0.03,3.62-0.05,5.4501-0.07
	c0.6899,6.27,4.02,11.76,7.5399,16.83c4.39,6.2,9.28,12.04,14.4701,17.59c1.12-1.34,2.9399-2.5,2.63-4.52
	C1293.95,115.82,1293.74,100.54,1294.11,85.27z"/>
<path d="M1044.47,208.26c2.7001-6.06,5.25-13.13,11.5801-16.31c10.0499,4.19,18.86,11.81,23.33,21.86
	c3.54,7.55,4.88,15.93,5.0599,24.21c-0.1599,2.81,2.3101,4.73,3.5901,6.99c7.96,11.86,15.48,25.23,15.22,39.95
	c-0.11,6.32,0.1801,12.66-0.14,18.98c-2.79,15.11-6.4,30.07-9.08,45.2c6.95,19.9,14.72,39.58,21.25,59.65
	c5.38,16.8,11.23,33.64,13.64,51.18c-0.86,10.41-3.39,20.65-4.51,31.05c0.01,6.71,0.75,14.02,4.96,19.53
	c2.6901,3.56,7.1801,5.06,11.51,5.11c23.5,2.57,46.99,5.59,70.17,10.32c10.49,2.34,21.1699,4.61,30.85,9.46
	c2.95,1.61,6.4,3.77,6.77,7.47c0.89,6.2,4.6499,11.4,7.97,16.53c10.8199,15.62,23.39,29.91,35.87,44.19
	c1.27,1.45,0.49,3.6,0.76,5.36c-1.59,1.5-3.15,3.02-4.6801,4.57c-0.8099-0.77-1.6-1.52-2.38-2.27c-1.5499,1.5-3.09,3-4.61,4.53
	c-10.6,0.46-21.48-0.82-31.21-5.25c-6.04-2.79-11.5-7.89-12.8-14.65c-1.5499-15.32-12.7799-28.35-26.4199-34.78
	c-0.01-1.52-0.02-3.03-0.01-4.54c-25.6801,1.39-51.37,2.77-77.0601,4.16c-12.4,0.95-25.1799,0.14-36.9299-4.16
	c-6.5901-2.39-12.6001-6.29-17.4401-11.35c-9.96,6.52-20.9,12.11-32.83,13.66c-0.02,2.1801-0.02,4.38-0.01,6.58
	c7.98,2.89,14.74,8.21,21.79,12.81c8.97,5.96,17.1799,13.02,26.5499,18.38c27.99,17.19,53.4301,38.26,76.97,61.11
	c4.6001,5.06,11.16,7.55,16.4501,11.77c7.97,5.96,16.88,13.14,18.02,23.75c-7.24,4.87-16.17,5.85-24.54,7.38
	c-7.11,0.69-14.87,3.45-21.5699-0.32c-8.5-4.66-12.0801-14.33-15.2101-22.93c-7.5699-7.08-15.58-13.72-23.36-20.59
	c-2.41,1.56-4.83,3.11-7.1799,4.75c-6.14-2.65-5.7401-10.63-6.9501-16.2c-31.97-15.17-64.02-30.16-95.89-45.53
	c-10.73-8.84-20.75-20.14-23.72-34.13c-3.69-0.75-7.31-2.34-11.12-2.14c-40.85,3.7401-81.7,7.5-122.55,11.22
	c4.22,15.28,2.91,32.23-4.59,46.31c-8.7,16.61-24,28.41-39.72,37.95c-7.65,7.89-14.45,16.7-20.04,26.19
	c-4.33,7.56-7.81,15.87-8.34,24.66c-0.37,12.17,2.93,24.45,9.47,34.73c5.96,9.47,14.19,17.33,23.3,23.76c0,1.54,0,3.1,0.01,4.66
	c-12.68,7.04-27.44,9.04-41.75,9.03c-3.93,0.02-5.54-4.27-6.89-7.24c-4.32-11.53-5.77-23.87-7.48-35.99
	c-2.28-18.25-3.6-36.59-4.72-54.94c-0.14-3.08-1.54-5.88-2.41-8.77c-0.6-0.03-1.8-0.09-2.4-0.12
	c-18.09,19.77-37.86,38.33-60.78,52.4c-4.26,10.45-8.03,21.15-11.81,31.8c-0.51,12.78,2.87,25.59,9.15,36.7
	c-1.09,3.37-2.91,6.55-5.62,8.88c-5.87-0.08-11.92,0.59-17.58-1.33c-10.85-3.46-19.22-12.01-25.67-21.07
	c-1.42-6.22,1.49-12.3,3.77-17.95c11.69-26.75,26.41-52.03,40.18-77.72c1.47-13.22,12.51-22.03,21.67-30.38
	c8.24-10.59,15.52-22,21-34.26c4.37-10.07,7.46-20.99,6.81-32.06c-0.77-15.33-1.37-30.67-2.1-46c-0.29-3.42,0.39-6.8,1.09-10.12
	c3.05-14.58,7.16-29.46,16.11-41.63c0.87-1.19,1.47-2.51,1.81-3.95c-5.72,0.4-11.33,1.63-17.02,2.12
	c-15.82,0.37-30.7-7.93-40.96-19.58c-15.37-17.24-24.12-39.16-31.08-60.88c-1.29-6.25-1.16-12.7-1.87-19.02
	c-2.32-20.56,0.01-42.11,9.1-60.87c8.42-17.31,23.88-30.69,41.6801-37.71c6.35-0.88,12.74-1.87,19.16-2.2
	c7.81,1.05,15.97,2.02,23.02,5.81c2.87,1.41,2.65,5.17,1.61,7.72c-1.31,3.19-3.05,6.19-4.7,9.21
	c-9.26,16.18-19.57,31.72-29.55,47.45c-1.98,8.83-3.21,17.85-4.78,26.77c-0.6,14.96,4.57,29.85,13.2,41.98
	c11.01,15.42,26.52,27.16,42.99,36.21c12.03-0.29,24.02-1.94,36.01-3.09c20.49-2.42,41.09-4.97,60.97-10.67
	c6.15-1.97,12.56-3.99,17.61-8.17c4.06-4.85,9.97-7.42,15.02-11.04c26.22-17.43,51.16-36.78,74.39-58.03
	c-0.63-6.45-2.02-12.85-2.19-19.32c1.79-16.04,3.8-32.08,6.86-47.94c1.54-7.54,3.12-15.24,6.96-22c-1.27-26.07-3.15-52.12-4.4-78.19
	c0.5-8.82,10.84-14.28,18.88-11.97c8.69,2.14,15.39,8.64,20.87,15.39c6.93-1.58,13.77-3.72,20.83-4.7
	C1040.97,207.01,1042.46,208.23,1044.47,208.26z"/>
<path d="M1433.42,743.43c3.1599-5.84,9.2799-10.26,16.0599-10.33c2.12,3.67,3.54,7.7401,3.98,11.97c0.51,3.6-0.01,7.41,1.49,10.82
	c1.92,4.93,3.8501,9.85,5.7101,14.81c8.5,0.95,14.73,7.5,19.8099,13.82c9.0901,11.79,15.89,25.15,22.2001,38.58
	c7.83,16.78,14.5699,34.04,21.0599,51.38c1.75,3.94,0.86,8.34,1.0801,12.51c0.34,7.27-1.29,14.41-2.3,21.57
	c39.66,25.99,84.26,46.6,131.95,51.08c2.03,2.58,5.3,3.42,8.4401,3.77c9.66,1.2,19.4299,0.6,29.15,0.75
	c12.36-0.08,24.72,0.15,37.08-0.11c7.26-1.26,13.58-5.46,19.99-8.88c20.34-11.94,39.64-25.56,58.89-39.16
	c2.59-2.02,5.64-3.54,7.8099-6.05c14.3101-21.29,28.52-42.68,44.1101-63.07c4.5399-5.66,8.86-11.68,14.72-16.08
	c1.5,0.02,3.01,0.04,4.5599,0.07c6.98,7.02,12.28,16.05,13.4401,26.02c0.52,6,0.51,12.05,0.3199,18.0699
	c0.05,15.29-7.59,29.34-16.58,41.22c-12.58,16.39-28.29,30.03-44.53,42.66c-12.78,9.7-25.9,19.01-39.5599,27.41
	c-8.3101,1.67-16.6901,3.12-25.0601,4.42c-3.89-1.17-7.5699-2.91-11.38-4.26c12.92,12.04,22.91,27.19,28.71,43.8801
	c5.7201,15.8099,7.5801,32.7,7.9501,49.4199c5.46,17.55,14.46,34.22,27.09,47.67c7.9401,8.53,17.4301,15.51,27.64,21.08
	c-0.74,4.62-2.55,9.1901-2.01,13.9401c2.5601,25.1899,5.09,50.38,7.58,75.5699c0.4401,5.9301,1.7101,11.88,1.04,17.84
	c-1.25,8.25-8.54,14.16-15.96,16.89c-8.3101,0.24-16.62-0.01-24.9301,0.11c-2.4299-2.2899-4.76-4.6599-7.21-6.9099
	c0.35-1.26,0.66-2.5701,1.5699-3.55c5.66-7.16,11.11-14.5599,15.29-22.7c2.45-4.8401,4.38-10.14,4.04-15.65
	c-0.36-9.78,1.13-19.91-2.26-29.3201c-4-11.8799-13.04-21.22-22.9301-28.5099c0.9401,23.3099,3.1901,46.5699,4.4501,69.87
	c0.2799,2.12-1.53,3.6-2.75,5.0599c-5.2301,5.47-12.8401,7.76-20.13,8.8201c-8.1801,1.11-16.91,1.1-24.53-2.4
	c-2.34-0.88-2.8201-3.42-2.95-5.6c5.85-6.3,11.45-12.87,16.33-19.9501c2.85-4.36,5.75-8.9399,6.61-14.16
	c0.3101-4.61,0.05-9.24,0.14-13.85c-0.11-5.13,0.47-10.4-1.23-15.34c-3.04-9.21-9.8101-16.55-16.9-22.9
	c-17.62-15.29-38.64-25.87-59.39-36.1699c-4.33-5.3401-7.87-11.29-11.51-17.1101c-3.01-5.0699-6.0699-10.2699-7.2-16.13
	c-4.8201,0.6901-9.6,2.6101-14.5,2.01c-3.92-2.11-4.5701-7.1-5.9301-10.9199c-11.36-1.41-22.7-3.13-34.08-4.3
	c-30.62,8.27-62.41,10.83-93.9301,13.22c0.6801,3.88,1.89,7.6901,2.12,11.64c-1.9099,13.3301-4.08,26.64-6.1,39.9601
	c-1,4.95-0.25,10-0.1899,15.0099c0.7,16.8601,1.13,33.75,1.9299,50.6101c1.8101,6.1,4.5,11.9399,6.74,17.9099
	c-5.2899,4.25-7.2999,11.0801-8.1899,17.55c-1.51,9.92-0.47,19.99-1.0601,29.97c-0.64,7.14-5.89,13.04-12.14,16.11
	c-3.46,2.0601-7.87,2.3401-10.6699,5.4501c-8.26-0.27-16.9401,1.11-24.8-2.05c-2.7999-1.02-4.45-3.66-5.02-6.46
	c1.6-2.99,3.12-6.01,4.7001-9.01c-1.9-0.42-4.01-0.42-5.5801-1.66c-1.45-1.35-1.12-3.38-1.2799-5.12
	c12.1-10.79,23.0599-25.29,22.8899-42.23c-2.23-22.4401-5.2599-44.8101-9.4199-66.97c-2.9601-14.88-6.3-29.77-11.8301-43.9301
	c-3.2899-8.0699-7.1599-16.48-14.23-21.91c-2.84-2.48-7-1.88-9.9099-4.1c-14.7101-10.73-28.66-22.6799-40.42-36.63
	c-15.13-17.83-26.48-39.7599-28.15-63.39c-1.15-10.78,1.26-21.47,3.28-31.99c6.09-29.1,13.89-57.8,21.5699-86.51
	c-7.14-0.47-13.9399,3.31-21.0699,1.81c-12.1-1.65-24.5701-2.24-36.14-6.38c-9.14-6.54-14.3101-16.95-19.53-26.6
	c-1.27-1.95-1.7-4.8799,0.3-6.5099c4.62-4.1801,10.61-6.38,16.22-8.9c9.98-4.2,20.28-7.6,30.52-11.12
	c11.0699-20,29.47-35.21,50.24-44.36C1428.83,758.65,1429.62,750.47,1433.42,743.43z"/>
<path d="M522.42,758.72c1.79-1.67,3.55-3.37,5.31-5.08c6.44,18.05,12.92,36.1,19.37,54.15c0.95,2.54,1.5,5.4901,3.89,7.14
	c11.57,9.88,25.27,16.83,38.99,23.19c2.78,1.38,4.33,4.28,6.31,6.56c6.2,8.27,12.82,17.07,14.03,27.67
	c7.88-0.87,15.69-2.74,23.65-2.62c11.01,9.05,21.95,18.22,32.39,27.94c5.46,5.5,11.73,10.62,15.26,17.65
	c0.71,4.56,0.12,9.24,0.3,13.86c-10.45,9.92-21.07,20.07-33.89,26.89c-4.3701,2.95-9.38-0.61-14.03-1.03
	c0.05,0.7,0.16,2.09,0.21,2.79c5.18,5.82,10.47,11.56,15.46,17.54c0.84,2.61,0.19,5.49,0.17,8.21
	c-8.14,5.34-16.58,11.09-21.8701,19.47c-2.31,3.13-0.95,7.98-4.42,10.34c-4.57,3.64-10.18,5.61-15.58,7.64
	c-4.9399,1.98-10.35,0.61-15.46,0.21c-21.11-2.72-40.04-14.59-54.19-30.13c-8.09,1.6-16.17,3.18-24.26,4.74
	c-2.67,0.65-5.41,0.07-8.08-0.18c-6.07-0.67-12.14-1.34-18.21-1.96c1.48,23.14,3.72,46.2399,5.29,69.3799
	c-1.42,10.4401-3.52,20.79-5.2,31.2001c6.67-0.3101,12.23,3.8999,17.58,7.2799c15.48,10.5901,29.65,22.9401,43.85,35.15
	c18.82,16.5,37.25,33.4301,55.47,50.5701c14.38,1.21,28.78,2.83,42.83,6.1699c8.35,2.12,17.04,4.52,23.8799,10.02
	c3.08,2.3301,4.84,5.9301,5.3101,9.73c7.55,6.02,15.2599,12.26,20.39,20.5701c1.97,3.08,3.07,6.61,3.45,10.25
	c-13.54,8.6599-29.01,15.77-45.4,15.47c-5.56-1.1899-10.33-4.54-14.85-7.8c-8.03-5.96-14.98-13.1799-22.05-20.1899
	c-5.21-2.29-10.82-3.6-16.19-5.46c-2.67,2.5399-5.28,5.1499-7.94,7.7c-28.18-23.64-58.61-44.4-89.17-64.8
	c-19.64-13.13-39.67-25.6699-59.54-38.4399c-9.11-9.27-17.8-18.96-26.74-28.39c-9.94,1.59-19.8,3.8101-29.77,5.03
	c-28.71-4.09-57.39-8.4401-86.09-12.6c-4.39-0.2001-8.88,0.6599-12.92,2.3899c-2.17,0.9301-4.91,3.2201-3.77,5.8701
	c4.3,10.96,6.8,22.5199,9,34.0599c4.34,22.7,6.67,45.73,9.43,68.64c6.23,12.38,16.22,22.45,26.86,31.14
	c8.17,6.6699,17.03,12.4299,26.11,17.78c2.69,14.6399,5.35,29.2799,7.99,43.9299c-5.98,5.3101-13.17,10.26-21.49,10.26
	c-7.9-0.02-15.81,0.14-23.7-0.0699c-8.99-1.42-18.93-5.66-22.44-14.74c-3.31-7.7001,0.35-15.8,1.04-23.63
	c-4.07-0.51-5.27-4.6101-5.33-8.13c-0.84-0.8501-1.69-1.6801-2.53-2.49c-0.69,0.0199-2.07,0.0699-2.76,0.09
	c-3.57,1.75-6.68,6.0499-11.05,4.87c-1.85-2.53-2.48-5.6901-3.34-8.62c-4.18-16.5801-6.51-33.55-9.49-50.35
	c-12.51-27.0601-25.37-54.2201-33.13-83.1101c-2.1-8.5599-4.29-17.37-3.74-26.24c4.26-16.11,8.68-32.1699,13.02-48.26
	c-5.26-5.23-10.68-10.2999-15.93-15.5299c-12.04,11.8099-22.86,26.12-25.83,43.1c-1.65,10.65-0.3,21.61,2.57,31.9399
	c5.21,18.2101,16.4,34.16,29.75,47.37c1.72,1.51,2.33,3.78,3.16,5.8401c2.06,5.46,4.22,10.88,6.27,16.34
	c-9.52,1.8-18.77,5.85-28.6,5.17c-3.67-0.2301-7.64,0.71-11.02-1.13c-8.75-4.2201-17.35-10.36-21.36-19.51
	c-0.94-39.0801-9.41-77.47-18.5-115.3301c-0.29-1.46-0.67-3.1799,0.5-4.34c8.32-10.4,16.45-21.33,20.99-33.98
	c1.17-4,2.71-8.3,1.8-12.47c-6.87-17.8-13.96-35.5099-20.85-53.31c-2.9,0.17-6.61-0.92-8.67,1.77c-4.66,6.17-3.16,14.51-6.49,21.23
	c-4.29,9.63-10.41,18.28-16.56,26.78c-17.14,22.92-36.37,44.17-55.82,65.14c-3.63,4-7.59,7.72-10.97,11.9399
	c-6.22,11.27-11.29,23.89-10.42,37.01c0.51,21.2101,8.14,42.27,21.96,58.4401c2.19,2.14,2.89,5.1899,3.87,7.99
	c1.99,5.86,4.03,11.7,6.03,17.5699c-12.78,7.37-28.01,8.0701-42.39,7.54c-5.44-1.67-9.24-6.87-10.24-12.35
	c-1-5.66-0.38-11.4401-0.61-17.15c-1.68-40.03-3.65-80.05-5.2-120.08c10.5-5.8,16.96-16.55,21.67-27.2101
	c7.74-18.05,11.57-37.48,14.52-56.81c3.72-24.34,5.02-48.97,6.42-73.52c6.39-13.74,13.7-27.09,21.65-40.01
	c6-9.45,12.38-18.83,20.56-26.55c4.44-4.18,9.8-7.84,16.04-8.37c0.03-0.58,0.07-1.7401,0.1-2.32c-3.93-4.77-8.04-9.39-12.03-14.11
	c-1.15-1.03-1.28-2.55-1.48-3.96c2.84-2.49,5.3-5.4,8.26-7.74c30.58,10.27,63.16,12.35,95.2,12.74c7.75-0.65,14.91,3.02,21.75,6.16
	c17.76,8.97,32.1,23.37,44.1,39c1.04,1.94,3.47,1.57,5.28,2.06c9.29,1.36,18.51,3.18,27.82,4.35c10.71-0.55,21.38-1.93,32.1-2.36
	c21.36,2.24,42.71,4.72,64.05,7.11c5.08,0.7,10.21,0.47,15.33,0.46c2.48-16.28,5-32.55,7.51-48.8199c0.96-6.53-0.09-13.16,0.61-19.7
	c0.76-2.76,3.99-3.49,6.47-3.66c4.41-0.5,7.34,3.53,9.83,6.54c8.72,12.08,14.45,25.96,20.61,39.43c2.35,2.37,5.51,3.81,8.29,5.64
	c11.49-2.8701,24.15-7.09,30.77-17.67c3.71-5.34,2.77-12.13,5.21-17.92C522.57,787.08,522.3,772.75,522.42,758.72z"/>
<path d="M1177.3199,814.31c4.27-17.29,13.75-33.9,28.77-43.96c3.1801-0.87,4.8,2.98,7.03,4.58c0.01,15.47-0.03,30.94,0.03,46.42
	c0.62-0.04,1.87-0.12,2.49-0.15c7.9-7.76,15.8199-15.5,23.8099-23.16c0.75,0.82,1.51,1.66,2.29,2.51
	c-5.1799,11-10.77,22.25-11.97,34.52c6.39,6.68,12.54,13.66,17.6799,21.38c2.87,4.47,5.64,9.29,6.2001,14.68
	c-0.17,3.54-1.5701,6.91-2.34,10.35c8.8199,8.59,17.6399,17.18,26.5,25.73c4.49,3.99,8.12,8.82,11.5599,13.72
	c0.01,0.55,0.05,1.64,0.0699,2.19c-5.7599,7.59-12.4099,14.66-20.2699,20.1c-4.74,3.08-10.26,5.8701-16.0601,5.32
	c-8.41-2.07-16.78-4.35-25.17-6.49c-4.8999-1.16-9.72-3.08-14.84-2.63c-4.59,20.55-9.46,41.05-13.99,61.61
	c0.58,10.72,3.4501,21.2599,4.4501,31.97c-0.03,19.22-6.25,38.1-16.0701,54.5c-1.33,2.37-3.47,4.6-3.02,7.54
	c0.3101,7.6-1.3199,15.8199,2.92,22.6699c7.89,14.14,18.7999,26.29,29.46,38.38c12.29,12.4,25.3,24.39,35,39.04
	c3.4501,5.12,5.9,11.83,3.02,17.79c-5.6,11.4299-14.71,20.5699-22.65,30.34c-4.2999,8.33-8.2999,16.85-13.0399,24.96
	c-3.0601,5.13-6.04,10.52-10.75,14.3401c-5.7101-3.0701-11.03-7.3101-13.9701-13.1901c-2.0399-3.83-2.6599-8.1899-2.87-12.4399
	c0.8-0.78,1.61-1.53,2.4401-2.27c-1.63-1.62-3.42-3.0901-4.78-4.9301c0.62-5.9199,4.74-10.6699,8.48-15.01
	c3.9501-4.6599,8.75-8.47,13.03-12.7999c3.39-5.1801,6.29-10.6801,9.54-15.9501c-17.03-12.34-34.01-24.77-50.6101-37.7
	c-4.86-3.62-9.3799-7.71-14.37-11.15l0.63,0.21c-10-8.0299-19.7799-16.38-28.76-25.5599c-1.59-0.02-3.1699-0.03-4.73-0.03
	c-3.38,11.79-4.37,24.08-5.5599,36.23c-2.28,26.9401-3.2001,53.9601-3.9,80.98c-0.54,17,2.49,34.38,10.5601,49.49
	c6.98,13.25,17.6699,24.3101,30.0099,32.6801c0.55,3.46-1.83,6.25-4.9199,7.41c-9.67,4.0699-20.26,5.09-30.5601,6.4199
	c-3.9299-5.2899-11.23-5.46-17.12-6.8899c-3.83-16.42-7.71-32.8301-11.5399-49.25c-0.27-1.8401-1.75-3.03-2.9601-4.25
	c-3.12-3.01-6.22-6.03-9.33-9.04c1.3099-5.5801,2.85-11.1,4.22-16.65c0.8-2.88-0.01-5.85-0.1799-8.74
	c-3.78-34.3-7.91-68.76-17.1001-102.11c-1.24-5.4301-4.2999-10.5-3.7899-16.22c-25.0901-1.4701-50.17-3.1101-75.26-4.55
	c-5.54,0.46-10.8701,2.25-16.25,3.5601c-8.98,2.62-18.2,5.4299-25.84,11.0399c-3.5,2.51-6.26,6.16-6.8,10.54
	c-5.49,1.6-7.84,7.33-9.74,12.1799c-2.11,5.15-2.91,10.7301-4.67,15.9801c-14.33,11.4199-28.92,22.5199-43.36,33.7999
	c-5.35,3.6801-9.21,8.98-13.14,14.04c-5.48,7.42-10.21,15.71-11.91,24.88c-2.34,16.03,2.17,33.13,12.98,45.34
	c3.72,4.4401,8.12,8.26,12.77,11.71c-0.07,2.88,0.37,6.51-2.5,8.28c-4.86,3.1801-10.99,3.0801-16.58,3.25
	c-7.5-0.22-15.83,1.13-22.4-3.39c-6.6-4.49-8.5-12.96-8.71-20.46c-0.11-15.3199,0.07-30.65-0.08-45.97
	c-0.66-9.1801-1.55-18.3401-2.29-27.5c-11.69,9.65-23.01,20.5699-29.54,34.48c-2.79,5.9299-4.1,12.49-3.84,19.04
	c0.28,8.0699-0.9,16.3999,1.69,24.23c3.78,11.88,11.58,21.9399,19.76,31.15c-0.09,1.99,0.18,4.0499-0.32,6.0199
	c-1.37,2.3301-4.13,3.27-6.53,4.15c-7.83,2.39-16.04,3.04-24.14,3.77c-5.9-4.96-13.34-10.24-14.26-18.48
	c0.46-17.98,1.13-35.9501,1.74-53.92c-0.07-7.9299,1.31-15.96-0.34-23.7899c-1.33-8.1001-2.54-16.2001-3.88-24.29
	c7.07-8.23,14.25-16.38,21.37-24.5701c2.17-2.5599,4.71-4.8899,6.09-7.99c7.57-15.7999,11-33.21,13.13-50.48
	c1.62-13.88,2.29-27.85,2.32-41.8099c-0.14-1.79,0.34-3.48,1.21-5.01c4.4-8.48,8.77-16.98,13.16-25.4601
	c-15.98,0.1001-32.24-4.7-44.66-14.98c-14.92-12.15-24.12-29.7999-30.22-47.72c-2.05-5.34-2.48-11.08-3.55-16.65
	c-0.82-5.42-2.09-10.77-2.64-16.21c-0.24-14.68,1.98-30.22,10.6-42.49c6.98-10.04,18.34-16.26,30.15-18.69
	c5.34-1.38,10.89-0.81,16.34-0.91c1.89,2.13,5.3,3.69,4.92,7.03c0.03,3.02,0.34,6.22-0.93,9.07c-4.84,11.69-9.34,23.61-11.93,36.02
	c-1.81,7.84-1.59,15.93-1.41,23.92c0.36,9.83,5.68,18.92,12.98,25.29c10.1299,8.95,22.79,14.37,35.47,18.66
	c1.84,0.75,3.85,0.24,5.78,0.1c24.58-2.88,49.21-6.64,72.8799-14.07c11.72-3.71,23.05-8.74,33.2-15.7
	c33.48-13.16,66.85-28.3,94.92-51.19c2.9399-2.82,7.0399-3.66,10.5499-5.53c10.7101-5.25,20.39-13.29,26.05-23.93
	c2.45-3.73,2.71-8.67,6.04-11.81c20.4199-20.86,37.4099-44.88,51.8199-70.21c0.6901-1.3,1.73-2.34,2.95-3.15
	C1154.75,830.4,1166.03,822.35,1177.3199,814.31z"/>
<path d="M1336.54,1285.61c2.3099-4.53,5.0599-9.79,10.45-11.0699c5.11,10.4199,10.22,20.95,17.03,30.4099
	c1.98,2.41,3.88,5.3,6.91,6.4801c4.6799,0.24,9.3899,0.0099,14.09,0.0699c7.3099-11.0699,14.12-22.62,23.0699-32.48
	c1.8201-2.5701,5.0801-1.9,7.8101-1.9501c9.61,9.76,16.83,22.8501,16.34,36.88c-1.28,8.4301-3.33,16.75-4.5,25.2101
	c3.4301,9.35,6.6,18.88,8,28.7999c0.99,5.62,1.02,11.3401,1.48,17.03c13.61,11.33,27.53,24.09,33.1,41.49
	c76.7201,27.09,153.9501,53.0701,232.7101,73.63c9.2,2.33,18.39,4.73,27.6699,6.78c13.9501-7.87,27.63-16.8101,38.2201-28.99
	c7.5399-8.61,13.1699-19.39,13.6699-31c0.01-2.5,1.3401-4.67,2.39-6.84c7.12-14.3601,15.0601-28.42,24.92-41.1001
	c8.4399-10.6,18.48-20.7999,31.49-25.48c4.04-1.6,8.41-1.7999,12.66-2.47c13.13-5.24,26.49-11.62,40.97-11.26
	c4.61,0.16,9.95,0.17,13.47,3.67c2.61,2.8099,2.04,6.9399,1.84,10.46c-1.1499,15.01-8.48,28.95-18.5,39.97
	c-12.63,14.1-28.7799,24.42-45.26,33.42c-5.5199,16.6799-11.2699,33.39-19.33,49.04c-3.47,5.99-6.96,13.2-14.03,15.5199
	c-11.25,12.4401-25.72,24.28-43.25,24.92c-8.3999-0.36-16.75-1.59-25.13-2.24c1.9501,9.46,3.8501,18.9299,5.8301,28.39
	c0.61,3.26,1.74,6.61,0.9,9.96c-2.05,9.24-4.0701,18.5-6.13,27.74c-1.0601,4.41-0.52,8.97-0.63,13.47
	c-0.12,19.5601,1.21,39.38,6.98,58.1801c6.21,21.25,19.1599,40.95,38,53.01c-0.65,7.9-1.87,15.77-2.26,23.6899
	c1.89,23.99,4.01,47.9701,5.98,71.9501c0.46,6.37,1.39,12.75,0.9301,19.16c-2.9601,7.46-9.1001,14.49-17.3401,15.9299
	c-3.83,1.1-7.45-0.97-11.0299-1.9399c-1.5701,1.5-3.1101,3.0399-4.63,4.6c-1.65-0.0601-3.3,0.11-4.89-0.1801
	c-3.2101-2.03-6.12-4.47-9.2101-6.64c-1.45,0.79-2.83,3.26-4.62,1.92c-0.64-1.52-0.7799-3.2-1.71-4.52
	c-1.46-1.74-3.84-1.86-5.88-2.1899c-3.49-2.42-2.33-7.2101-0.29-10.2201c3.62-5.0599,9.62-7.5599,15.24-9.71
	c2.2301-0.5499,3.4301-2.64,4.78-4.2999c4.88-6.6201,8.9601-14.4,8.89-22.8201c-0.2-17.89-7.01-35.11-16.8099-49.85
	c-17.6101-26.1801-42.5901-46.36-68.4701-63.9c0.26,10.09,3.28,19.88,4.8,29.83c-18.9301,17.16-35.54,36.63-52.09,56.02
	c-6.41,7.3301-12.2201,15.17-18.92,22.24c-10.15-0.72-20.6-1.5599-30.09-5.5c-3.41-1.2799-5.92-4.2899-5.65-8.0599
	c13.1899-15.66,30.99-26.3101,47.9-37.42c10.7799-9.7999,16.7899-24.6,16.09-39.12c-6.89-26.8199-14.3101-53.51-21.09-80.34
	c0.2-7.61,1.64-15.15,2.3199-22.74c-9.66-4.1901-20.0499-7.23-30.6699-6.8301c-21.66,0.52-43.05,4.5-64.17,9.0601
	c-18.25,4.05-36.35,8.73-54.3,13.92c-5.2,20.84-9.7799,42.12-9.47,63.71c0.0601,12.33-0.11,24.66,0.08,36.99
	c1.9301,7.84,4.7301,15.47,7,23.23c-4.8199,0.12-8.49,4-8.96,8.6801c-0.99,10.0499-1.71,20.14-2.61,30.21
	c-0.0601,4.04-3.0601,7.16-5.36,10.21c-5.63,7.01-14.4501,10.92-23.38,10.9601c0,0.5399,0.01,1.63,0.01,2.1699
	c-9.5-2.35-19.02-4.6-28.51-6.96c1.01-8.85,7.96-15.22,14.38-20.63c-2.39-0.78-4.77-1.5599-7.14-2.3099
	c-0.75,0.7599-1.48,1.5399-2.1901,2.35c-3.3999,0.09-6.4299-1.5601-9.3999-2.9601c-3.25-1.62-6.6001-3.4299-8.73-6.4399
	c-1.41-1.95-0.8401-4.48-1-6.6901c14.0699-6.37,25.24-18.61,30.2999-33.2c6.9-18.41,4.9301-38.34,5.22-57.5699
	c0.28-19.9-5.5399-39.51-14.97-56.9c-7.71-14.36-17.65-27.42-28.66-39.39c-4.2999-4.99-6.1399-11.48-8.34-17.54
	c-8.4399-26.5499-13.41-54.02-18.8199-81.2899c-3.89-6.6901-5.29-14.4-7-21.87c-1.77-7.9801-3.2201-16.02-4.73-24.04
	c-0.3501-2.1-1.7101-3.77-2.79-5.49c-6.3-9.7001-12.49-19.47-18.8101-29.15c-1.1799-1.9301-2.95-3.89-2.2799-6.3199
	c1.75-12.3501,3.7-24.6801,6.12-36.92c1.4299-6.86,2.7799-13.8101,5.5699-20.28c-0.6-5.03-3.17-10.08-1.41-15.12
	C1329.34,1304.83,1332.09,1294.87,1336.54,1285.61z"/>
<path d="M420.63,1331.61c2.36-0.02,4.72-0.02,7.09-0.03c1.61,15.3,3.14,30.61,4.71,45.91c6.41-6.8,12.57-13.84,19.04-20.6
	c-1.15,11.54-3.27,22.96-4.83,34.4399c12.04,11.9501,23.95,24.87,30.46,40.78c0.17,4.66-1.64,9.26-1.91,13.9501
	c0.22,1.1299,1.4,1.73,2.11,2.6c12.65,12.22,25.23,24.52,37.9,36.73c-5.88,8.53-12.44,16.78-20.69,23.15
	c-5.77,4.51-13.03,7.51-20.46,6.6599c-17.68-1.61-34.44-7.9099-51.1-13.6c-5.5,0.0701-9.86,4.2101-13.37,8.05
	c-9.1,10.5599-15.19,23.25-21.15,35.75c-1.56,2.35,0.04,5.0399,0.47,7.51c3.14,13.1,5.69,26.49,5.67,40.01
	c-2,9.36-4.7,18.58-7.03,27.88c26.31,3.0399,52.77,5.85,78.56,12.1499c8.2,2.1801,16.7,4.37,23.78,9.2301
	c3.75,2.22,3.87,7.09,6.82,10.0299c16.35,20.0801,40.05,32.2201,63.46,42.17c1.54,3.0599,3.11,6.11,4.67,9.17
	c-15.5,13.5-36.58,18.51-56.74,18.34c-9.82-17.38-23.27-32.4301-37.89-45.9c-3.89,1.53-7.8,2.98-11.67,4.5601
	c-0.83-0.78-1.65-1.52-2.46-2.26c0.02-4.6001,0-9.2001,0-13.79c-14.04,1.38-28.1,2.7-42.14,4.09c-7.96,0.9-15.99,0.3301-23.98,0.52
	c13.98,39.6,28.26,79.11,42.2,118.72c0.65,6.7301,1.5,13.5701,4.41,19.78c6.98,15.88,20.13,27.97,33.73,38.28
	c-0.01,1.48-0.01,2.98,0,4.51c-4.07,2.24-7.9,4.98-12.14,6.87c-12.38,0.1699-24.77,0.08-37.15,0.0499
	c-2.82,0.12-4.66-2.4199-5.95-4.5599c-8.4-16.41-8.35-35.38-13.32-52.8201c-3.17-0.7599-6.33-1.5499-9.49-2.3199
	c0.74-6.5599,1.63-13.1,2.24-19.66c0.21-1.7799-1.28-3.1-1.99-4.5599c-19.59-31.39-38.99-63.3-63.93-90.79
	c-0.13-1.46-0.2-2.9-0.22-4.3199c-20.76,5.84-41.58,12.11-60.85,21.96c-8.88,4.66-17.75,10.1801-23.67,18.49
	c-1.11,1.65-3.26,2.92-2.92,5.21c5.93,3.77,12.07,7.29,17.33,12.01c7.76,6.65,14.48,15.52,15.63,25.9701
	c0.85,8.4399-0.21,17.59-5.2,24.7c-4.46,6.4301-11.47,10.6-18.75,13.12c-11.14,3.84-23.05,4.6801-34.75,4.77
	c-0.08,0.5499-0.26,1.66-0.35,2.21c7.35,1.1901,15.45,0.5801,22.02,4.5601c5.39-0.9501,10.72-2.5601,16.25-2.17
	c7.63,0.38,15.64-1.15,22.9,1.92c10.11,4.09,18.34,11.46,26.46,18.5299c-10.55,13.1101-28.68,16.3101-44.61,16.2301
	c-2.86-3.2001-7.22-4.16-11.1-5.5c-15.06-4.49-30.52-7.42-45.9-10.54c-1.86,2.91-4.51,5.51-5.09,9.0699
	c6.33,2.25,12.64,4.61,18.64,7.65c3.94,2.04,7.97,4.46,10.25,8.4301c-3.01,5.74-8.2,9.89-13.7,13.11
	c-6.92,4.11-14.38,7.23-21.94,9.98c-13.01-7.98-27.76-12.53-42.51-16.05c-3.68,7.75-10.23,15.4301-19.41,15.9401
	c-9.77,0.35-19.75,0.34-29.22-2.42C79.81,1870.4,63.94,1859.8,49.51,1848.15c-1.29-5.5701-2.57-11.14-3.86-16.7001
	c-1.56-5.6899-0.67-11.62-0.89-17.4199c0.38-18.64-1.98-37.24-2.12-55.8301c15.06-32.8999,39.17-60.6499,64.81-85.7699
	c11.56-12.6101,19.08-28.2201,26.5-43.4601c4.62-9.5399,8.41-19.46,12.81-29.08c20.01-25.6901,38.93-52.54,53.04-82
	c1.58-3.05,2.45-6.64,5.13-8.97c16.47-15.92,34.22-30.9,54.58-41.63c2.15-7.5901,9.16-12.17,15.08-16.7001
	c19.39-13.4399,40.62-23.9299,61.7-34.4c3.22-1.74,6.85-2.85,9.71-5.1799c13.94-13.67,29.86-25.12,46.2-35.72
	C395.54,1357.66,406.83,1342.61,420.63,1331.61z"/>
<path d="M708.46,1401.33c10.45-8.58,24.19-12.2699,37.55-12.25c10.27-0.2899,20.88,2.4501,28.93,9.04
	c11.96,9.7,17.14,25.11,19.84,39.77c1.55,9.95,3.28,20.38,0.3799,30.25c-1.03,4.4-2.06,8.7999-3,13.23
	c0.72-0.76,1.45-1.5,2.1801-2.22c24.56-0.0801,49.12,0.01,73.68-0.04c10.03-0.39,20.01-3.0499,30.09-1.64
	c18.06,2.11,35.46,7.87,52.45,14.15c26.39,9.96,51.9,22.08,77.06,34.78c2.79,1.03,3.8199,4.08,5.99,5.91
	c5.03,4.5199,11.38,7.22,17.66,9.5399c12.21,4.37,24.96,6.98,37.73,9.12c6.39,0.74,11.79,4.5901,17.2,7.79
	c22.25,14.51,38.8601,35.97,52.8101,58.23c1.61,2.28,2.55,5.17,4.72,7.01c5.5701,2.51,9.71,7.12,13.8201,11.49
	c6.96,7.62,13.4399,15.6801,19.71,23.89c9.33,2.29,18.66,4.64,27.87,7.41c4.62,1.4299,9.35,2.8199,13.41,5.5599
	c-2.27,2.42-5.41,3.7001-8.4,4.97c-12.24,4.9701-24.89,8.8-37.41,12.9501c-6.48,14.99-16.08,29.53-30.5699,37.76
	c-3.05,1.9199-6.9401,2.0599-9.7201,4.47c-5.0099,4.08-8.71,9.47-12.2599,14.8101c-7.28,11.4299-13.3501,23.59-19.0601,35.87
	c-0.97,1.8999-2.65,4.45-5.16,3.6499c-13.52-4.21-27.26-12.21-33.1899-25.6899c-4.37-9.46-2.79-20.05-3.52-30.1
	c-0.8101-13.39-2.05-27.1801-7.77-39.49c-1.52-3.66-4.78-6.3-5.9299-10.1101c-10.3101,2.26-20.67,4.29-30.9801,6.51
	c-1.37,5.9401-7.23,8.9301-12.1899,11.5c-7.12,3.51-14.67,6.03-22.23,8.4c0.3199,3.3201,3.31,5.3,5.2599,7.74
	c32.1501,36.3101,64.3901,72.5701,96.82,108.64c0,1.4301,0.01,2.88,0.03,4.36c-7.4301,2.2001-14.84,4.51-22.34,6.4601
	c-11.38,0.75-24.41-3.2001-30.36-13.66c-2.88-4.21-2.8501-9.76-6.26-13.63c-4.54-6.2-8.99-12.46-13.5-18.67
	c-0.5601,0.5701-1.6901,1.7201-2.25,2.3c-1.79-0.21-4.0601,0.03-5.0701-1.79c-3.02-4.71-3.24-10.5399-4.01-15.9
	c-10.1299-6.6-20.28-13.1599-30.43-19.72c-4.15-2.37-7.75-5.9-12.46-7.11c4.05,5.95,9.28,11,13.79,16.62
	c8.8,10.24,17.59,20.49,26.38,30.75c2.01,2.3201,3.88,4.79,6.22,6.8201c9.0701,7.47,18.0701,15.1299,25.87,23.95
	c2.88,3.5699,6.15,7.3099,6.86,12.02c-0.73,3.9299-4.48,6.4299-8.0499,7.59c-6.3301,1.97-13.0801,1.65-19.62,1.55
	c-7.9901-0.29-16.63-1.78-22.67-7.4601c-4.56-4.23-6.17-10.62-6.27-16.63c-6.65-8.1-13.5-16.01-20.19-24.0599
	c-2.16,2.47-6.4,2.98-8.98,1.09c-2.77-4.34-2.17-9.79-2.56-14.7c-5.36-5.62-11.66-10.1901-17.91-14.75
	c-16.55-11.7001-33.65-22.6-50.88-33.27c-5.26-2.91-8.86-7.89-12.65-12.38c-5.89-7.4401-11.18-16.23-11.28-25.99
	c0.16-6.54-1.07-13.76,2.94-19.46c3.68-6.2301,9.93-10.0701,15.22-14.7301c-0.04-0.58-0.13-1.73-0.18-2.3099
	c-14.56-16.3201-22.6-37.0701-31.56-56.7001c-6.2-6.8099-15.9-9.5099-24.91-9.1799c-5,17.5699-10.1801,35.33-19.15,51.35
	c-3.69,5.97-8.05,12.87-15.43,14.4301c-2.76,0.51-4.84,2.51-7.06,4.0699c-13.61,10.17-26.87,21.46-36.03,35.95
	c-6.39,9.8301-9.64,21.78-7.96,33.4801c1.55,18.22,12.3,34.5699,26.75,45.35c0.01,2.9299,0.01,5.88-0.01,8.84
	c-5.82,1.2001-11.61,2.49-17.41,3.76c-3.99,1.11-8.08-0.03-12.05-0.59c-6.03-1.2001-12.46-2.67-17.12-6.9501
	c-2.32-2.0699-3.33-5.21-3.2-8.25c-0.01-15.0299-0.01-30.0599,0-45.09c0.3-8.6899-1.26-17.27-1.97-25.9
	c-0.84-8.24-1.74-16.47-2.51-24.71c-14.48,11.71-27.83,26.15-33.55,44.24c-3,8.83-2.77,18.23-2.7,27.4301
	c-0.09,9.0199,3.6,17.51,7.8,25.2999c4.31,7.7001,9.43,14.9301,14.98,21.79c0.39,2.92-1.44,5.35-4.19,6.1899
	c-9.61,3.4801-19.98,4.04-30.1,4.66c-5.18-4.34-10.72-9.6899-11.06-16.88c-0.15-14.35-0.02-28.71-0.06-43.0499
	c-0.28-13.04,1.71-25.9801,2.17-38.9701c-1.19-8.85-3.22-17.5699-4.29-26.4299c15.23-9.3,25-25.2201,30.96-41.65
	c8.94-24.96,11.23-51.7,11.83-78.03c0.25-3.3199-0.69-6.97,1.25-9.9199c6.41-11.6801,12.79-23.3701,19.11-35.0901
	c-7.9901-0.1-15.96-2.9199-21.86-8.37c-11.68-10.74-16.71-26.51-20.41-41.48c-2.06-9.62,0.5-19.38,2.74-28.72
	C688.63,1426.96,695.78,1411.53,708.46,1401.33 M728.8,1463.08c3.13,12.14,12.1,24.1801,25.12,26.4501
	c4.53,1.35,9.06,0.0499,13.3-1.5901c-9.85-15.45-19.67-30.9099-29.54-46.34C729.4,1445.04,728.95,1455.39,728.8,1463.08z"/>
<path fill="#FFFFFF" d="M728.8,1463.08c0.15-7.6899,0.6-18.0399,8.88-21.48c9.87,15.4301,19.69,30.89,29.54,46.34
	c-4.24,1.64-8.77,2.9401-13.3,1.5901C740.9,1487.26,731.93,1475.22,728.8,1463.08z"/>
</svg>
